<svg width="113" height="123" viewBox="0 0 113 123" fill="none" xmlns="http://www.w3.org/2000/svg">
<g clip-path="url(#clip0)">
<path fill-rule="evenodd" clip-rule="evenodd" d="M37.3462 63.4601C34.6982 67.9616 12.9004 87.7646 6.77377 94.3977C3.62131 97.8086 1.74062 98.5838 0.492426 103.589C-0.540445 107.738 0.0483245 112.693 2.28902 116.02C7.31541 123.486 15.7164 122.996 26.2402 122.992C46.9447 122.975 67.6593 122.932 88.3605 122.999C98.686 123.032 106.75 121.65 109.778 113.459C114.919 99.5439 101.525 94.0051 94.3995 84.5352C90.3521 79.1539 85.6992 82.8836 86.1197 86.5459C86.5741 90.5137 97.9053 99.054 100.849 102.887C103.662 106.547 102.555 111.888 99.0695 113.653C96.0281 115.194 88.3201 114.671 84.4747 114.671L22.3577 114.684C17.3313 114.741 11.7295 115.151 9.46194 111.958C6.37676 107.611 9.24998 103.673 11.9146 101.085C21.6713 91.608 32.7032 80.0433 42.9174 70.0331C50.8644 62.2448 49.33 63.6009 39.3579 53.4763C34.1129 48.149 30.0218 43.899 23.9625 37.8498C19.7738 33.667 10.8077 26.8424 13.7953 18.544C16.9612 9.75209 24.4907 9.0035 35.5628 9.01354C45.6664 9.02362 56.3617 9.25527 66.0982 8.86922C75.0474 8.51673 86.971 7.44249 92.9059 12.4377C99.8365 18.2721 97.9323 27.0303 91.8057 32.8144C89.6018 34.8958 84.7034 38.2226 86.446 42.0595C90.0158 49.9148 107.538 33.1837 105.852 19.6215C104.749 10.739 99.4766 4.72002 92.3878 2.11837C84.4644 -0.788758 43.7046 0.0370535 32.4172 0.355965C22.5023 0.63795 14.014 2.3265 9.62342 8.13068C-8.65539 32.3108 29.11 49.6763 37.3462 63.4601Z" fill="#006189"/>
<path fill-rule="evenodd" clip-rule="evenodd" d="M92.6134 111.085C93.4072 106.627 89.2221 105.469 85.6725 103.341C79.0212 99.3496 63.4406 91.8804 60.7693 87.7951C57.9803 83.5348 61.6035 87.9796 60.7122 82.83C53.4583 83.8673 64.7627 82.8368 51.8201 90.5274C39.3278 97.9532 12.2647 106.544 21.14 111.824C22.8726 112.855 88.9967 112.14 92.6134 111.085Z" fill="#8E0429"/>
<path fill-rule="evenodd" clip-rule="evenodd" d="M28.0803 22.5994L44.7709 39.5421C53.5421 48.2163 54.5077 46.0577 55.9107 62.6815C57.8046 64.1516 59.026 65.3434 60.8933 65.6492C61.058 56.8738 61.6637 47.8504 67.888 42.2645C70.6972 39.7433 82.2335 29.2428 83.4416 27.1346C79.7071 25.6307 73.6174 25.8758 69.4018 24.241C65.0616 22.5591 61.7076 20.2797 56.9301 18.9168C48.4349 16.4998 34.8998 18.7221 28.0803 22.5994Z" fill="#8E0429"/>
<path fill-rule="evenodd" clip-rule="evenodd" d="M56.5233 79.8485C59.5987 79.4488 59.0905 80.785 58.6262 76.8538L55.9648 76.7465C55.6454 79.761 55.4033 78.1227 56.5233 79.8485Z" fill="#8E0429"/>
<path fill-rule="evenodd" clip-rule="evenodd" d="M55.5946 65.4842L55.0529 67.9011L57.6265 67.841C57.872 65.4507 57.6334 65.2122 55.5946 65.4842Z" fill="#8E0429"/>
<path fill-rule="evenodd" clip-rule="evenodd" d="M60.0355 74.3061C60.7656 76.599 59.6551 75.4373 61.9599 76.1661L62.8212 74.3399C62.5352 74.2056 62.2996 73.8127 62.2188 73.9972L60.0355 74.3061Z" fill="#8E0429"/>
<path fill-rule="evenodd" clip-rule="evenodd" d="M59.8472 79.7279C63.141 82.3229 61.1495 80.0334 61.7213 79.7279C60.4564 79.1239 63.2893 77.8146 59.8472 79.7279Z" fill="#A53B56"/>
<path fill-rule="evenodd" clip-rule="evenodd" d="M56.0552 73.5308L57.5725 73.9134C57.6533 73.8899 57.8553 73.6483 58.0132 73.5308C54.7598 71.1404 56.8626 73.158 56.0552 73.5308Z" fill="#A53B56"/>
<path fill-rule="evenodd" clip-rule="evenodd" d="M59.3425 69.6573C60.3215 70.3356 60.0692 70.4729 61.0615 69.6573C58.2625 67.5927 60.1534 69.2846 59.3425 69.6573Z" fill="#A53B56"/>
</g>
<defs>
<clipPath id="clip0">
<rect width="113" height="123" fill="white"/>
</clipPath>
</defs>
</svg>
