<svg width="15" height="14" viewBox="0 0 15 14" fill="none" xmlns="http://www.w3.org/2000/svg">
<path d="M3.05005 14H0.0500488V4H3.05005V14ZM14.05 14H11.05V8.658C11.05 7.266 10.554 6.573 9.57105 6.573C8.79205 6.573 8.29805 6.961 8.05005 7.738V14H5.05005C5.05005 14 5.09005 5 5.05005 4H7.41805L7.60105 6H7.66305C8.27805 5 9.26105 4.322 10.609 4.322C11.634 4.322 12.463 4.607 13.096 5.323C13.733 6.04 14.05 7.002 14.05 8.353V14Z" fill="white"/>
<path d="M1.55 3C2.40604 3 3.1 2.32843 3.1 1.5C3.1 0.671573 2.40604 0 1.55 0C0.693959 0 0 0.671573 0 1.5C0 2.32843 0.693959 3 1.55 3Z" fill="white"/>
</svg>
