<svg width="23" height="23" viewBox="0 0 23 23" fill="none" xmlns="http://www.w3.org/2000/svg">
<path d="M17.0304 0H5.96887C2.50997 0 0 2.51071 0 5.96961V17.0304C0 20.4893 2.50997 23 5.96887 23H17.0304C20.4893 23 23 20.4893 23 17.0304V5.96961C23 2.51071 20.4893 0 17.0304 0ZM21.5161 17.0304C21.5161 19.6717 19.6717 21.5161 17.0304 21.5161H5.96887C3.32832 21.5161 1.48387 19.6717 1.48387 17.0304V5.96961C1.48387 3.32832 3.32832 1.48387 5.96887 1.48387H17.0304C19.6717 1.48387 21.5161 3.32832 21.5161 5.96961V17.0304Z" fill="#016189"/>
<path d="M10.8805 12.2382C10.5838 11.848 10.1586 11.572 9.60736 11.4102C10.0355 11.198 10.3545 10.9198 10.5659 10.5755C10.7774 10.2313 10.8835 9.86403 10.8835 9.47378C10.8835 9.05458 10.764 8.6532 10.5259 8.26887C10.2877 7.88455 9.95681 7.60039 9.53614 7.41565C9.11546 7.2309 8.55456 7.13742 7.85714 7.13742H4.43311V16.2662H7.91352C8.4952 16.2662 8.98562 16.2157 9.38627 16.1141C9.78691 16.0117 10.12 15.8618 10.3857 15.6623C10.6513 15.4634 10.8746 15.18 11.0549 14.8127C11.2352 14.4447 11.3257 14.0478 11.3257 13.6205C11.3257 13.0885 11.1773 12.6285 10.8805 12.2382ZM5.64098 10.9732V8.21545H7.4654C8.12127 8.21545 8.58423 8.25774 8.8543 8.34232C9.12436 8.42765 9.33136 8.58494 9.47678 8.81568C9.6222 9.04716 9.69491 9.31352 9.69491 9.61623C9.69491 9.936 9.61701 10.2016 9.4612 10.4131C9.3054 10.6245 9.07391 10.7766 8.76675 10.8679C8.53452 10.9384 8.1502 10.974 7.61527 10.974H5.64098V10.9732ZM9.89449 14.3891C9.77356 14.6117 9.61998 14.7801 9.43375 14.8973C9.24678 15.0131 9.01456 15.0962 8.73633 15.1459C8.57904 15.1748 8.30452 15.1904 7.91427 15.1904H5.64098V15.1896V12.0513H7.75178C8.33346 12.0513 8.77788 12.1017 9.08727 12.2041C9.39665 12.305 9.63852 12.4823 9.81288 12.7331C9.98723 12.9839 10.0748 13.2799 10.0748 13.6205C10.0748 13.9113 10.0147 14.1665 9.89449 14.3891Z" fill="#016189"/>
<path d="M18.5677 12.9497C18.5677 11.8576 18.2872 11.0111 17.7271 10.4086C17.1662 9.80468 16.4442 9.5042 15.5599 9.5042C14.6465 9.5042 13.9046 9.81136 13.3311 10.4257C12.7583 11.0407 12.4719 11.9036 12.4719 13.0165C12.4719 14.0916 12.7553 14.927 13.3214 15.5235C13.889 16.1185 14.6554 16.4161 15.6237 16.4161C16.3908 16.4161 17.0215 16.2291 17.5163 15.8559C18.0105 15.482 18.3481 14.9567 18.5306 14.28L17.3724 14.1383C17.2025 14.6109 16.9725 14.9559 16.6802 15.1718C16.3901 15.3877 16.0399 15.4953 15.6289 15.4953C15.0769 15.4953 14.6161 15.3024 14.2459 14.9166C13.8772 14.5301 13.6724 13.9736 13.6301 13.248H18.5617C18.5662 13.1152 18.5677 13.0158 18.5677 12.9497ZM13.6924 12.325V12.3243C13.7288 11.7471 13.9239 11.2871 14.2733 10.9421C14.625 10.5978 15.0583 10.4249 15.5717 10.4249C16.1408 10.4249 16.6038 10.6416 16.9606 11.0734C17.1921 11.3516 17.3338 11.7686 17.3843 12.325H13.6924Z" fill="#016189"/>
<path d="M17.3932 7.95354H13.6479L13.6382 8.87502H17.3999L17.3932 7.95354Z" fill="#016189"/>
</svg>
