<svg width="16" height="16" viewBox="0 0 16 16" fill="none" xmlns="http://www.w3.org/2000/svg">
<path d="M3 6.46875H3.46875C3.64134 6.46875 3.78125 6.32882 3.78125 6.15625V5.68754C3.78125 5.51494 3.64134 5.37504 3.46875 5.37504H3C2.82737 5.37504 2.6875 5.51494 2.6875 5.68754V6.15625C2.6875 6.32882 2.82737 6.46875 3 6.46875Z" fill="#016189"/>
<path d="M3 8.34378H3.46875C3.64134 8.34378 3.78125 8.20384 3.78125 8.03128V7.56247C3.78125 7.38988 3.64134 7.24997 3.46875 7.24997H3C2.82737 7.24997 2.6875 7.38988 2.6875 7.56247V8.03128C2.6875 8.20384 2.82737 8.34378 3 8.34378Z" fill="#016189"/>
<path d="M3 10.2187H3.46875C3.64134 10.2187 3.78125 10.0788 3.78125 9.90621V9.43749C3.78125 9.26493 3.64134 9.12499 3.46875 9.12499H3C2.82737 9.12499 2.6875 9.26493 2.6875 9.43749V9.90621C2.6875 10.0788 2.82737 10.2187 3 10.2187Z" fill="#016189"/>
<path d="M3 12.0936H3.46875C3.64134 12.0936 3.78125 11.9537 3.78125 11.7811V11.3124C3.78125 11.1399 3.64134 10.9999 3.46875 10.9999H3C2.82737 10.9999 2.6875 11.1399 2.6875 11.3124V11.7811C2.6875 11.9537 2.82737 12.0936 3 12.0936Z" fill="#016189"/>
<path d="M4.64062 6.46875H5.1094C5.28197 6.46875 5.4219 6.32882 5.4219 6.15625V5.68754C5.4219 5.51494 5.28197 5.37504 5.1094 5.37504H4.64062C4.46803 5.37504 4.32812 5.51494 4.32812 5.68754V6.15625C4.32812 6.32882 4.46803 6.46875 4.64062 6.46875Z" fill="#016189"/>
<path d="M4.64062 8.34378H5.1094C5.28197 8.34378 5.4219 8.20384 5.4219 8.03128V7.56247C5.4219 7.38988 5.28197 7.24997 5.1094 7.24997H4.64062C4.46803 7.24997 4.32812 7.38988 4.32812 7.56247V8.03128C4.32812 8.20384 4.46803 8.34378 4.64062 8.34378Z" fill="#016189"/>
<path d="M4.64062 10.2187H5.1094C5.28197 10.2187 5.4219 10.0788 5.4219 9.90621V9.43749C5.4219 9.26493 5.28197 9.12499 5.1094 9.12499H4.64062C4.46803 9.12499 4.32812 9.26493 4.32812 9.43749V9.90621C4.32812 10.0788 4.46803 10.2187 4.64062 10.2187Z" fill="#016189"/>
<path d="M4.64062 12.0936H5.1094C5.28197 12.0936 5.4219 11.9537 5.4219 11.7811V11.3124C5.4219 11.1399 5.28197 10.9999 5.1094 10.9999H4.64062C4.46803 10.9999 4.32812 11.1399 4.32812 11.3124V11.7811C4.32812 11.9537 4.46803 12.0936 4.64062 12.0936Z" fill="#016189"/>
<path d="M6.28125 6.46875H6.75003C6.92262 6.46875 7.06253 6.32882 7.06253 6.15625V5.68754C7.06253 5.51494 6.92262 5.37504 6.75003 5.37504H6.28125C6.10869 5.37504 5.96875 5.51494 5.96875 5.68754V6.15625C5.96875 6.32882 6.10866 6.46875 6.28125 6.46875Z" fill="#016189"/>
<path d="M6.28125 8.34378H6.75003C6.92262 8.34378 7.06253 8.20384 7.06253 8.03128V7.56247C7.06253 7.38988 6.92262 7.24997 6.75003 7.24997H6.28125C6.10869 7.24997 5.96875 7.38988 5.96875 7.56247V8.03128C5.96875 8.20384 6.10866 8.34378 6.28125 8.34378Z" fill="#016189"/>
<path d="M6.28125 10.2187H6.75003C6.92262 10.2187 7.06253 10.0788 7.06253 9.90621V9.43749C7.06253 9.26493 6.92262 9.12499 6.75003 9.12499H6.28125C6.10869 9.12499 5.96875 9.26493 5.96875 9.43749V9.90621C5.96875 10.0788 6.10866 10.2187 6.28125 10.2187Z" fill="#016189"/>
<path d="M6.28125 12.0936H6.75003C6.92262 12.0936 7.06253 11.9537 7.06253 11.7811V11.3124C7.06253 11.1399 6.92262 10.9999 6.75003 10.9999H6.28125C6.10869 10.9999 5.96875 11.1399 5.96875 11.3124V11.7811C5.96875 11.9537 6.10866 12.0936 6.28125 12.0936Z" fill="#016189"/>
<path d="M9.25 6.46875H9.71875C9.89134 6.46875 10.0312 6.32882 10.0312 6.15625V5.68754C10.0312 5.51494 9.89134 5.37504 9.71875 5.37504H9.25C9.07737 5.37504 8.9375 5.51494 8.9375 5.68754V6.15625C8.9375 6.32882 9.07737 6.46875 9.25 6.46875Z" fill="#016189"/>
<path d="M9.25 4.59382H9.71875C9.89134 4.59382 10.0312 4.45388 10.0312 4.28132V3.81264C10.0312 3.64007 9.89134 3.50014 9.71875 3.50014H9.25C9.07737 3.50014 8.9375 3.64007 8.9375 3.81264V4.28132C8.9375 4.45388 9.07737 4.59382 9.25 4.59382Z" fill="#016189"/>
<path d="M9.25 2.71892H9.71875C9.89134 2.71892 10.0312 2.57899 10.0312 2.40642V1.93758C10.0312 1.76502 9.89134 1.62508 9.71875 1.62508H9.25C9.07737 1.62508 8.9375 1.76502 8.9375 1.93758V2.40642C8.9375 2.57899 9.07737 2.71892 9.25 2.71892Z" fill="#016189"/>
<path d="M9.25 8.34378H9.71875C9.89134 8.34378 10.0312 8.20384 10.0312 8.03128V7.56247C10.0312 7.38988 9.89134 7.24997 9.71875 7.24997H9.25C9.07737 7.24997 8.9375 7.38988 8.9375 7.56247V8.03128C8.9375 8.20384 9.07737 8.34378 9.25 8.34378Z" fill="#016189"/>
<path d="M9.25 10.2187H9.71875C9.89134 10.2187 10.0312 10.0788 10.0312 9.90621V9.43749C10.0312 9.26493 9.89134 9.12499 9.71875 9.12499H9.25C9.07737 9.12499 8.9375 9.26493 8.9375 9.43749V9.90621C8.9375 10.0788 9.07737 10.2187 9.25 10.2187Z" fill="#016189"/>
<path d="M9.25 12.0936H9.71875C9.89134 12.0936 10.0312 11.9537 10.0312 11.7811V11.3124C10.0312 11.1399 9.89134 10.9999 9.71875 10.9999H9.25C9.07737 10.9999 8.9375 11.1399 8.9375 11.3124V11.7811C8.9375 11.9537 9.07737 12.0936 9.25 12.0936Z" fill="#016189"/>
<path d="M10.8906 6.46875H11.3593C11.5319 6.46875 11.6718 6.32882 11.6718 6.15625V5.68754C11.6718 5.51494 11.5319 5.37504 11.3593 5.37504H10.8906C10.718 5.37504 10.5781 5.51494 10.5781 5.68754V6.15625C10.5781 6.32882 10.718 6.46875 10.8906 6.46875Z" fill="#016189"/>
<path d="M10.8906 4.59382H11.3593C11.5319 4.59382 11.6718 4.45388 11.6718 4.28132V3.81264C11.6718 3.64007 11.5319 3.50014 11.3593 3.50014H10.8906C10.718 3.50014 10.5781 3.64007 10.5781 3.81264V4.28132C10.5781 4.45388 10.718 4.59382 10.8906 4.59382Z" fill="#016189"/>
<path d="M10.8906 2.71892H11.3593C11.5319 2.71892 11.6718 2.57899 11.6718 2.40642V1.93758C11.6718 1.76502 11.5319 1.62508 11.3593 1.62508H10.8906C10.718 1.62508 10.5781 1.76502 10.5781 1.93758V2.40642C10.5781 2.57899 10.718 2.71892 10.8906 2.71892Z" fill="#016189"/>
<path d="M10.8906 8.34378H11.3593C11.5319 8.34378 11.6718 8.20384 11.6718 8.03128V7.56247C11.6718 7.38988 11.5319 7.24997 11.3593 7.24997H10.8906C10.718 7.24997 10.5781 7.38988 10.5781 7.56247V8.03128C10.5781 8.20384 10.718 8.34378 10.8906 8.34378Z" fill="#016189"/>
<path d="M10.8906 10.2187H11.3593C11.5319 10.2187 11.6718 10.0788 11.6718 9.90621V9.43749C11.6718 9.26493 11.5319 9.12499 11.3593 9.12499H10.8906C10.718 9.12499 10.5781 9.26493 10.5781 9.43749V9.90621C10.5781 10.0788 10.718 10.2187 10.8906 10.2187Z" fill="#016189"/>
<path d="M10.8906 12.0936H11.3593C11.5319 12.0936 11.6718 11.9537 11.6718 11.7811V11.3124C11.6718 11.1399 11.5319 10.9999 11.3593 10.9999H10.8906C10.718 10.9999 10.5781 11.1399 10.5781 11.3124V11.7811C10.5781 11.9537 10.718 12.0936 10.8906 12.0936Z" fill="#016189"/>
<path d="M12.5312 6.46875H12.9999C13.1725 6.46875 13.3124 6.32882 13.3124 6.15625V5.68754C13.3124 5.51494 13.1725 5.37504 12.9999 5.37504H12.5312C12.3586 5.37504 12.2187 5.51494 12.2187 5.68754V6.15625C12.2187 6.32882 12.3586 6.46875 12.5312 6.46875Z" fill="#016189"/>
<path d="M12.5312 4.59382H12.9999C13.1725 4.59382 13.3124 4.45388 13.3124 4.28132V3.81264C13.3124 3.64007 13.1725 3.50014 12.9999 3.50014H12.5312C12.3586 3.50014 12.2187 3.64007 12.2187 3.81264V4.28132C12.2187 4.45388 12.3586 4.59382 12.5312 4.59382Z" fill="#016189"/>
<path d="M12.5312 2.71892H12.9999C13.1725 2.71892 13.3124 2.57899 13.3124 2.40642V1.93758C13.3124 1.76502 13.1725 1.62508 12.9999 1.62508H12.5312C12.3586 1.62508 12.2187 1.76502 12.2187 1.93758V2.40642C12.2187 2.57899 12.3586 2.71892 12.5312 2.71892Z" fill="#016189"/>
<path d="M12.5312 8.34378H12.9999C13.1725 8.34378 13.3124 8.20384 13.3124 8.03128V7.56247C13.3124 7.38988 13.1725 7.24997 12.9999 7.24997H12.5312C12.3586 7.24997 12.2187 7.38988 12.2187 7.56247V8.03128C12.2187 8.20384 12.3586 8.34378 12.5312 8.34378Z" fill="#016189"/>
<path d="M12.5312 10.2187H12.9999C13.1725 10.2187 13.3124 10.0788 13.3124 9.90621V9.43749C13.3124 9.26493 13.1725 9.12499 12.9999 9.12499H12.5312C12.3586 9.12499 12.2187 9.26493 12.2187 9.43749V9.90621C12.2187 10.0788 12.3586 10.2187 12.5312 10.2187Z" fill="#016189"/>
<path d="M12.5312 12.0936H12.9999C13.1725 12.0936 13.3124 11.9537 13.3124 11.7811V11.3124C13.3124 11.1399 13.1725 10.9999 12.9999 10.9999H12.5312C12.3586 10.9999 12.2187 11.1399 12.2187 11.3124V11.7811C12.2187 11.9537 12.3586 12.0936 12.5312 12.0936Z" fill="#016189"/>
<path d="M3.61761 14.125C3.44502 14.125 3.30511 14.265 3.30511 14.4375C3.30511 14.6101 3.44502 14.75 3.61761 14.75H3.62499C3.79755 14.75 3.93749 14.6101 3.93749 14.4375C3.93749 14.2649 3.79755 14.125 3.62499 14.125H3.61761Z" fill="#016189"/>
<path d="M9.86761 14.125C9.69502 14.125 9.55511 14.265 9.55511 14.4375C9.55511 14.6101 9.69502 14.75 9.86761 14.75H9.87495C10.0475 14.75 10.1875 14.6101 10.1875 14.4375C10.1875 14.265 10.0475 14.125 9.87495 14.125H9.86761Z" fill="#016189"/>
<path d="M0.319874 15.375H0.312499C0.139874 15.375 0 15.5149 0 15.6875C0 15.86 0.139874 16 0.312499 16H0.319874C0.492436 16 0.632372 15.86 0.632372 15.6875C0.632372 15.5149 0.492467 15.375 0.319874 15.375Z" fill="#016189"/>
<path d="M15.6875 15.375H15.6801C15.5075 15.375 15.3676 15.5149 15.3676 15.6875C15.3676 15.86 15.5075 16 15.6801 16H15.6875C15.8601 16 16 15.86 16 15.6875C16 15.5149 15.8601 15.375 15.6875 15.375Z" fill="#016189"/>
<path d="M14.7823 15.375H14.5623V0.312529C14.5623 0.139936 14.4224 3.05176e-05 14.2498 3.05176e-05H7.99997C7.82734 3.05176e-05 7.68747 0.139936 7.68747 0.312529V4.12511H1.74999C1.57737 4.12511 1.43749 4.26505 1.43749 4.43761V15.375H1.21771C1.04512 15.375 0.905212 15.5149 0.905212 15.6875C0.905212 15.86 1.04512 16 1.21771 16H1.74999H4.87498H6.75003H7.99997H11.125H12.9999H14.2498H14.2499H14.2499H14.7823C14.9548 16 15.0948 15.86 15.0948 15.6875C15.0948 15.5149 14.9548 15.375 14.7823 15.375ZM6.43754 15.375H5.18748V14.1251H6.43754V15.375ZM7.68747 15.375H7.06253V13.8126C7.06253 13.64 6.92263 13.5001 6.75003 13.5001H4.87498C4.70235 13.5001 4.56248 13.64 4.56248 13.8126V15.375H2.06249V14.75H2.7198C2.89236 14.75 3.0323 14.6101 3.0323 14.4375C3.0323 14.265 2.89236 14.125 2.7198 14.125H2.06249V4.75011H7.68747V15.375ZM12.6874 15.375H11.4375V14.1251H12.6874V15.375ZM13.9374 15.375H13.3124V13.8126C13.3124 13.64 13.1725 13.5001 12.9999 13.5001H11.125C10.9524 13.5001 10.8125 13.64 10.8125 13.8126V15.375H8.31247V14.75H8.96974C9.14234 14.75 9.28224 14.6101 9.28224 14.4375C9.28224 14.265 9.14234 14.125 8.96974 14.125H8.31247V4.43761V0.625028H13.9374V15.375Z" fill="#016189"/>
</svg>
