<svg width="21" height="20" viewBox="0 0 21 20" fill="none" xmlns="http://www.w3.org/2000/svg">
<path d="M9.43462 5.33646C9.48986 5.38325 9.55974 5.40869 9.63165 5.40869C9.64027 5.40869 9.64897 5.40833 9.65763 5.4076C9.73844 5.40068 9.8132 5.36186 9.86531 5.29967L11.8104 2.97876C11.9186 2.84969 11.9017 2.65741 11.7726 2.54928C11.6436 2.44107 11.4513 2.45802 11.3431 2.58713L9.59478 4.67312L8.79502 3.9958C8.66656 3.88693 8.47412 3.90291 8.36534 4.03141C8.25652 4.1599 8.2725 4.3523 8.40099 4.46108L9.43462 5.33646Z" fill="#016189"/>
<path d="M10.206 8.12094C11.2467 8.12094 12.2872 7.72501 13.0794 6.93313C13.8465 6.16642 14.2689 5.14669 14.2689 4.06185C14.2689 2.97704 13.8465 1.95708 13.0794 1.18967C12.2476 0.358204 11.0984 -0.0721247 9.92698 0.00990843C8.75038 0.0919822 7.66948 0.67723 6.96151 1.61561C6.86012 1.75004 6.88687 1.94118 7.02126 2.04261C7.15578 2.14407 7.34688 2.11728 7.4483 1.98285C8.04997 1.18536 8.96888 0.687962 9.96946 0.618206C10.9647 0.548977 11.9414 0.914265 12.6483 1.62086C13.3002 2.27297 13.6592 3.13989 13.6592 4.06185C13.6592 4.98377 13.3002 5.85036 12.6484 6.50191C11.3017 7.84806 9.11055 7.84797 7.76383 6.50191C6.8811 5.6195 6.54358 4.32421 6.88301 3.1214C6.92874 2.95936 6.83447 2.7909 6.6724 2.74517C6.51061 2.69948 6.34191 2.79375 6.29618 2.95578C5.89682 4.37083 6.29402 5.89487 7.33277 6.93313C8.12493 7.72505 9.16551 8.12094 10.206 8.12094Z" fill="#016189"/>
<path d="M19.5733 15.1194C19.4721 15.0617 19.3676 15.0024 19.2603 14.9381L18.4631 14.4601C18.8339 14.0662 19.1115 13.5877 19.2209 13.1084C19.2542 12.9637 19.2713 12.8214 19.2713 12.6861V10.6682C19.2713 9.75028 18.5806 8.92182 17.5111 8.558C16.5761 8.24011 15.6481 8.38767 15.1485 8.92101C14.6363 9.01125 13.918 9.41735 13.9424 10.9901C13.9428 11.004 13.9428 11.0153 13.9428 11.0243V12.6861C13.9428 12.8214 13.9599 12.9637 13.9932 13.1072C14.1021 13.5869 14.3794 14.0662 14.7509 14.4605L13.9672 14.9304C13.9615 14.9332 13.9558 14.9369 13.9501 14.9402C13.8444 15.0036 13.7408 15.0625 13.6408 15.1194C13.3412 15.2898 13.0493 15.4552 12.8241 15.6869L12.2623 15.3499C12.6334 14.9556 12.9111 14.4771 13.0204 13.9983C13.0529 13.8556 13.0696 13.7133 13.0696 13.5755V12.6788C13.0696 12.6786 13.0696 12.6784 13.0696 12.6781V11.5575C13.0696 10.6399 12.3793 9.81195 11.3109 9.44813C10.3761 9.12975 9.44763 9.27703 8.94803 9.81016C8.43551 9.90016 7.71701 10.3062 7.74189 11.8788C7.74213 11.893 7.74233 11.9046 7.74233 11.9134V12.3003V12.851V13.5755C7.74233 13.7068 7.75859 13.8483 7.79152 13.9983C7.90087 14.4771 8.17852 14.9556 8.55006 15.3499L7.98908 15.6869C7.76347 15.4552 7.4716 15.2893 7.1716 15.119C7.07038 15.0613 6.9659 15.0024 6.85899 14.9381L6.85086 14.9332C6.85005 14.9328 6.84928 14.9323 6.84846 14.9318L6.06167 14.4604C6.43285 14.0663 6.71042 13.5879 6.81977 13.1085C6.85249 12.9669 6.86907 12.8248 6.86907 12.6862V11.7878V11.4457V10.6683C6.86907 9.75057 6.17866 8.92243 5.11012 8.55849C4.17511 8.23999 3.24628 8.38743 2.74632 8.92097C2.23416 9.01101 1.51639 9.41711 1.54131 10.9896C1.54156 11.0038 1.54176 11.0154 1.54176 11.0242V11.41V11.9606V12.6862C1.54176 12.8248 1.55834 12.9668 1.59087 13.1077C1.70034 13.5875 1.97794 14.0661 2.34904 14.4602L1.55152 14.9381C1.44477 15.0021 1.34042 15.0614 1.23944 15.1188C0.602078 15.481 0 15.8231 0 16.8202V18.6112C0 18.672 0 18.8568 0.133456 18.9879C0.245124 19.0976 0.381548 19.1095 0.485126 19.1095C0.500491 19.1095 0.515126 19.1093 0.528825 19.1091C0.543337 19.1088 0.558541 19.1085 0.574476 19.1085H3.58165C3.58186 19.1085 3.58206 19.1085 3.58226 19.1085C3.58247 19.1085 3.58267 19.1085 3.58287 19.1085H4.20511H4.20528H4.82569C4.82585 19.1085 4.82601 19.1085 4.82617 19.1085C4.82634 19.1085 4.8265 19.1085 4.82666 19.1085H6.20037V19.5004C6.20037 19.5613 6.20037 19.7467 6.33452 19.878C6.44631 19.9878 6.58249 20 6.68615 20C6.70159 20 6.71623 19.9995 6.73005 19.9995C6.74428 19.9991 6.75932 19.9987 6.77517 19.9987H7.12639C7.29469 19.9987 7.43127 19.8621 7.43127 19.6939C7.43127 19.5256 7.29469 19.389 7.12639 19.389H6.81013V19.1085V18.4987V17.7093C6.81013 17.0926 7.07924 16.9154 7.74225 16.5394C7.75241 16.5337 7.76258 16.5276 7.77315 16.5219C7.81542 16.4979 7.85811 16.4731 7.90201 16.4479L8.41055 16.7772L8.93454 17.1166C8.93901 17.119 8.94348 17.1219 8.94795 17.1243C8.98454 17.1455 9.01665 17.1678 9.04795 17.189C9.11177 17.2325 9.23373 17.3158 9.38129 17.3158C9.44226 17.3158 9.50771 17.3016 9.57519 17.2646L9.61706 17.4288L9.02275 18.7162C9.02234 18.717 9.02194 18.7182 9.02153 18.719C8.97072 18.8239 8.97885 18.9398 9.04185 19.0353L9.24958 19.389H8.53453C8.36624 19.389 8.22965 19.5256 8.22965 19.6939C8.22965 19.8621 8.36624 19.9987 8.53453 19.9987H9.7821H9.78292H14.037C14.0529 19.9987 14.0679 19.9991 14.0821 19.9995C14.096 19.9995 14.1106 20 14.126 20C14.2301 20 14.3667 19.9878 14.4789 19.878C14.6126 19.7467 14.6126 19.5613 14.6126 19.5004V19.1085H17.2273H17.2281H20.2387C20.2541 19.1085 20.2696 19.1089 20.2838 19.1089C20.2976 19.1093 20.3123 19.1097 20.3277 19.1097C20.4314 19.1097 20.5676 19.0975 20.6793 18.9877C20.8131 18.8564 20.8131 18.6719 20.8131 18.6113V16.8203C20.8132 15.8235 20.2111 15.4812 19.5733 15.1194ZM6.12582 15.2094L5.35073 15.7107C5.31874 15.7296 5.29028 15.748 5.26504 15.7649L5.09841 15.5884C5.09561 15.5852 5.09256 15.5822 5.08963 15.5791L4.81186 15.2848C4.84182 15.2748 4.87215 15.2641 4.903 15.2525C5.13886 15.1647 5.36789 15.038 5.5815 14.8832L6.12582 15.2094ZM2.92892 9.51142C3.0138 9.50394 3.09169 9.4613 3.14368 9.39382C3.45316 8.99227 4.18093 8.88613 4.91357 9.13564C5.53435 9.34711 6.25931 9.87537 6.25931 10.6683V11.4457V11.483H6.13094C5.83045 11.483 5.63638 11.3155 5.34463 11.0422C5.01622 10.7347 4.60751 10.3519 3.89775 10.3519H3.35157C2.68831 10.3519 2.57754 10.8909 2.5114 11.2129C2.4353 11.5832 2.39925 11.6558 2.1566 11.6558H2.15152V11.4101V11.0242C2.15152 11.0131 2.15132 10.9982 2.15099 10.98C2.13636 10.0522 2.39803 9.55813 2.92892 9.51142ZM2.18522 12.9712C2.16286 12.8745 2.15156 12.7786 2.15156 12.6862V12.2655H2.15664C2.91762 12.2655 3.04189 11.6605 3.10868 11.3356C3.18555 10.9616 3.21742 10.9616 3.35161 10.9616H3.89783C4.36662 10.9616 4.62674 11.2052 4.92788 11.4872C5.23089 11.771 5.57431 12.0927 6.13102 12.0927H6.2594V12.6862C6.2594 12.7786 6.2481 12.8745 6.22553 12.9721C6.06391 13.6806 5.40386 14.4154 4.68983 14.6813C4.50666 14.7498 4.35276 14.7817 4.20552 14.7817C4.05828 14.7817 3.90438 14.7498 3.7208 14.6811C3.0071 14.4154 2.34701 13.6806 2.18522 12.9712ZM4.53211 15.8768L4.43308 16.2642H3.97568L3.87731 15.8783L4.20544 15.5308L4.53211 15.8768ZM2.82933 14.8833C3.04287 15.0381 3.27177 15.1646 3.50746 15.2524C3.53844 15.264 3.56893 15.2748 3.59901 15.2849L3.14596 15.7648C3.12059 15.7479 3.09197 15.7295 3.05982 15.7105L2.28506 15.2095L2.82933 14.8833ZM2.83734 18.1401L3.0486 18.4987H0.609761V16.8202C0.609761 16.2026 0.878502 16.0252 1.54074 15.6489C1.59306 15.6192 1.64631 15.5889 1.70062 15.5576L2.73425 16.2261C2.73823 16.2287 2.74222 16.2311 2.74628 16.2335C2.78283 16.2548 2.81502 16.2769 2.84616 16.2982C2.91555 16.3458 3.036 16.4283 3.18141 16.4283C3.24218 16.4283 3.30734 16.4137 3.37494 16.3762L3.41657 16.5395L2.8225 17.8267C2.77148 17.9284 2.77713 18.0439 2.83734 18.1401ZM4.65227 18.4987H4.2056C4.20556 18.4987 4.20552 18.4987 4.20544 18.4987H3.75629L3.43539 17.9539L3.93385 16.874H4.47479L4.97325 17.9539L4.65227 18.4987ZM6.20045 17.7093V18.4987H5.35996L5.57126 18.1401C5.63138 18.0441 5.63707 17.9288 5.58614 17.8269L4.99203 16.5397L5.03406 16.3753C5.10235 16.4135 5.16821 16.4284 5.22963 16.4284C5.37561 16.4284 5.49658 16.3453 5.56622 16.2975C5.59711 16.2763 5.62903 16.2544 5.66516 16.2332C5.66903 16.2309 5.67281 16.2286 5.67655 16.2262L6.71021 15.5577C6.76456 15.589 6.81777 15.6193 6.86993 15.6492C7.10936 15.7854 7.29717 15.8951 7.43985 16.0098C6.80249 16.3715 6.20045 16.7137 6.20045 17.7093ZM18.527 15.2097L17.7534 15.7105C17.7209 15.7296 17.692 15.7483 17.6664 15.7654L17.4997 15.5885C17.4965 15.5849 17.4924 15.5808 17.4887 15.5772L17.2131 15.2849C17.2432 15.2751 17.2733 15.2641 17.3042 15.2528C17.54 15.1646 17.7688 15.0381 17.9827 14.8832L18.527 15.2097ZM15.331 9.51126C15.416 9.50394 15.494 9.46126 15.546 9.39378C15.855 8.99255 16.5822 8.88605 17.3148 9.13524C17.9359 9.34703 18.6615 9.87508 18.6615 10.6682V11.4828H18.5323C18.2318 11.4828 18.0379 11.3157 17.7465 11.0426C17.418 10.7348 17.0095 10.3519 16.2989 10.3519H15.7526C15.0891 10.3519 14.9786 10.8909 14.9127 11.2133C14.8367 11.5832 14.8009 11.6556 14.5591 11.6556H14.5525V11.0243C14.5525 11.0133 14.5525 10.9983 14.5521 10.9804C14.5379 10.0523 14.7997 9.558 15.331 9.51126ZM14.5875 12.9714C14.5643 12.8714 14.5525 12.7755 14.5525 12.6861V12.2653H14.5591C15.3192 12.2653 15.4432 11.6605 15.5099 11.3357C15.5867 10.9617 15.6184 10.9617 15.7526 10.9617H16.2989C16.7684 10.9617 17.0286 11.2052 17.3294 11.4873C17.6322 11.771 17.9753 12.0926 18.5323 12.0926H18.6615V12.6861C18.6615 12.7755 18.6497 12.8714 18.6266 12.9723C18.4652 13.6808 17.805 14.4154 17.0904 14.6816C16.9087 14.7499 16.755 14.7816 16.6066 14.7816C16.4591 14.7816 16.3058 14.7499 16.1229 14.6812C15.4082 14.415 14.7481 13.6804 14.5875 12.9714ZM16.9335 15.8772L16.8351 16.2642H16.3769L16.2786 15.8784L16.6066 15.5308L16.9335 15.8772ZM15.231 14.8837C15.4444 15.0381 15.6733 15.1646 15.9091 15.2524C15.94 15.2637 15.9704 15.2747 16.0005 15.2849L15.5473 15.7646C15.5217 15.7479 15.4932 15.7296 15.4611 15.7105L14.6871 15.2093L15.231 14.8837ZM12.3269 16.0995L11.5533 16.6007C11.5208 16.6194 11.492 16.6381 11.4663 16.6548L11.0127 16.1751C11.0428 16.165 11.0728 16.1544 11.1037 16.143C11.3399 16.0548 11.5688 15.928 11.7826 15.7727L12.3269 16.0995ZM9.13056 10.4007C9.21547 10.3932 9.2934 10.3505 9.34539 10.283C9.6545 9.88187 10.3818 9.77593 11.1144 10.0254C11.735 10.2367 12.4599 10.7648 12.4599 11.5575V12.3343C12.4599 12.3345 12.4598 12.3347 12.4598 12.3349V12.3733H12.3315C12.0312 12.3733 11.8374 12.206 11.5459 11.9329C11.2176 11.6252 10.8089 11.2422 10.0984 11.2422H9.55218C8.88872 11.2422 8.77811 11.7814 8.71206 12.1036C8.63616 12.4736 8.60023 12.5461 8.3584 12.5461H8.35213V12.3003V11.9134C8.35213 11.9022 8.35193 11.8873 8.35161 11.8692C8.33689 10.9414 8.59897 10.4474 9.13056 10.4007ZM8.38665 13.8649C8.36388 13.7605 8.35209 13.6633 8.35209 13.5755V13.1558H8.35835C9.11868 13.1558 9.24271 12.551 9.30938 12.2261C9.38609 11.8519 9.418 11.8519 9.55218 11.8519H10.0984C10.5679 11.8519 10.8279 12.0956 11.129 12.3777C11.4318 12.6614 11.775 12.983 12.3316 12.983H12.4599V13.5755C12.4599 13.6678 12.4485 13.7641 12.4261 13.8621C12.2644 14.5698 11.6042 15.3048 10.8912 15.5714C10.7058 15.6401 10.5517 15.6722 10.4062 15.6722C10.2615 15.6722 10.107 15.6401 9.92166 15.5714C9.20779 15.3048 8.54762 14.5698 8.38665 13.8649ZM10.733 16.7666L10.6346 17.1536H10.1761L10.0781 16.7678L10.4062 16.4207L10.733 16.7666ZM9.346 16.6544C9.3208 16.6377 9.29235 16.6194 9.25982 16.6007L8.48624 16.0995L9.02974 15.7727C9.24397 15.928 9.47324 16.0548 9.70942 16.1434C9.73991 16.1544 9.76999 16.165 9.79967 16.1747L9.346 16.6544ZM10.8529 19.389H9.95698L9.63625 18.843L10.1342 17.7634H10.6765L11.1741 18.8438L10.8529 19.389ZM14.0029 19.389H11.5607L11.772 19.0304C11.831 18.9353 11.8375 18.8207 11.7879 18.719C11.7875 18.7182 11.7871 18.717 11.7867 18.7162L11.1936 17.4288L11.2354 17.2654C11.3033 17.3032 11.3692 17.3182 11.4302 17.3182C11.5753 17.3182 11.6956 17.2361 11.7651 17.189C11.7964 17.1674 11.8285 17.1455 11.8651 17.1243C11.8696 17.1219 11.8741 17.119 11.8785 17.1166L12.9111 16.4479C12.9542 16.4731 12.9973 16.4975 13.0391 16.5215C13.0501 16.5276 13.0611 16.5341 13.072 16.5402C13.7342 16.9162 14.0029 17.0934 14.0029 17.7093V19.389ZM15.2424 18.1451L15.4505 18.4987H14.6127V17.7093C14.6127 16.7137 14.0107 16.3719 13.3733 16.0097C13.3733 16.0097 13.3729 16.0097 13.3729 16.0093C13.5151 15.895 13.7029 15.7849 13.942 15.6495C13.9944 15.6194 14.0481 15.5894 14.1025 15.5576L15.1355 16.2259C15.1391 16.2288 15.1432 16.2312 15.1473 16.2337C15.1839 16.2548 15.216 16.2768 15.2473 16.2979C15.3115 16.3418 15.4343 16.4259 15.583 16.4259C15.6436 16.4259 15.7087 16.4117 15.7757 16.3751L15.8176 16.5394L15.2237 17.8268C15.2233 17.8272 15.2233 17.8272 15.2233 17.8276C15.1712 17.9325 15.1786 18.0487 15.2424 18.1451ZM17.0534 18.4987H16.1578L15.8371 17.9532L16.3351 16.8739H16.877L17.3749 17.9528L17.0534 18.4987ZM20.2034 18.4987H17.7611L17.9721 18.1402C18.029 18.0499 18.0379 17.9438 17.9965 17.8455C17.994 17.8394 17.9912 17.8329 17.9883 17.8268L17.394 16.5394L17.4359 16.3755C17.5038 16.4133 17.5696 16.4284 17.631 16.4284C17.7766 16.4284 17.8977 16.3455 17.9672 16.2979C17.9981 16.2768 18.0302 16.2548 18.0668 16.2337C18.0709 16.2312 18.0749 16.2288 18.079 16.2259L19.1115 15.5576C19.166 15.5894 19.2197 15.6194 19.2721 15.6495C19.9347 16.0255 20.2034 16.2028 20.2034 16.8203V18.4987Z" fill="#016189"/>
</svg>
