<svg width="24" height="24" viewBox="0 0 24 24" fill="none" xmlns="http://www.w3.org/2000/svg">
<path d="M12 0C5.3925 0 0 5.39297 0 12C0 18.6075 5.39297 24 12 24C18.6075 24 24 18.607 24 12C24 5.3925 18.607 0 12 0ZM20.1394 5.22703C21.6375 7.02422 22.552 9.32344 22.5914 11.8312C20.7136 11.392 18.6281 11.3625 16.5042 11.7497C15.9516 11.8505 15.3989 11.9784 14.8495 12.1322C14.6667 11.6348 14.4727 11.1417 14.2664 10.6533C14.0559 10.155 13.8337 9.66516 13.6012 9.18234C16.132 8.21578 18.8742 6.77672 20.1394 5.22703ZM12 1.40625C14.7572 1.40625 17.2711 2.46516 19.1578 4.19719C18.4219 5.20078 16.3247 6.66188 12.96 7.92188C11.7853 5.73469 10.3767 3.72469 8.74922 1.91719C9.77391 1.58578 10.8666 1.40625 12 1.40625ZM7.35703 2.47969C9.01688 4.25766 10.4447 6.24328 11.6208 8.38828C8.12016 9.52125 4.57594 9.98344 1.66172 9.68484C2.37141 6.51375 4.50656 3.87516 7.35703 2.47969ZM1.40625 12C1.40625 11.6888 1.42078 11.3808 1.44703 11.0766C2.09016 11.1445 2.76094 11.1788 3.45422 11.1788C6.18844 11.1788 9.26016 10.6528 12.2766 9.65391C12.7369 10.5961 13.1508 11.5655 13.5159 12.5588C12.3398 12.9816 11.1952 13.5192 10.1203 14.1591C7.485 15.728 5.55703 17.7464 4.75734 19.7236C2.69625 17.7895 1.40625 15.0427 1.40625 12ZM12 22.5938C9.73641 22.5938 7.63641 21.8798 5.91281 20.6653C6.44719 18.8597 8.25469 16.9064 10.8398 15.3675C11.7506 14.8247 12.8156 14.3133 13.9748 13.8975C14.7966 16.4803 15.3 19.2066 15.4598 22.013C14.3752 22.3889 13.2113 22.5938 12 22.5938ZM16.8314 21.4266C16.6364 18.6928 16.1273 16.0312 15.3103 13.4747C17.5884 12.8484 20.1188 12.6384 22.5183 13.2609C22.0936 16.8239 19.8942 19.8502 16.8314 21.4266Z" fill="#016189"/>
</svg>
