<svg width="24" height="24" viewBox="0 0 24 24" fill="none" xmlns="http://www.w3.org/2000/svg">
<path d="M6.56287 19.8281H5.15662C4.63879 19.8281 4.21912 19.4084 4.21912 18.8906V10.1719C4.21912 9.65405 4.63879 9.23438 5.15662 9.23438H6.56287C7.08069 9.23438 7.50037 9.65405 7.50037 10.1719V18.8906C7.50037 19.4084 7.08069 19.8281 6.56287 19.8281ZM7.82776 5.85919C7.82776 4.79846 6.96716 3.9375 5.90698 3.9375C4.84277 3.9375 3.98438 4.79846 3.98438 5.85919C3.98438 6.92029 4.84277 7.78125 5.90698 7.78125C6.96716 7.78125 7.82776 6.92029 7.82776 5.85919ZM19.7812 18.8906V13.9999C19.7812 11.1561 19.1805 9.04688 15.8584 9.04688C14.2621 9.04688 13.1906 9.84521 12.7531 10.6754H12.75V10.1719C12.75 9.65405 12.3303 9.23438 11.8125 9.23438H10.5C9.98218 9.23438 9.5625 9.65405 9.5625 10.1719V18.8906C9.5625 19.4084 9.98218 19.8281 10.5 19.8281H11.8125C12.3303 19.8281 12.75 19.4084 12.75 18.8906V14.5682C12.75 13.1907 13.1006 11.8563 14.8081 11.8563C16.4923 11.8563 16.5469 13.4315 16.5469 14.6558V18.8906C16.5469 19.4084 16.9666 19.8281 17.4844 19.8281H18.8438C19.3616 19.8281 19.7812 19.4084 19.7812 18.8906ZM24 20.25C24 19.7322 23.5803 19.3125 23.0625 19.3125C22.5447 19.3125 22.125 19.7322 22.125 20.25C22.125 21.2838 21.2838 22.125 20.25 22.125H3.75C2.71619 22.125 1.875 21.2838 1.875 20.25V3.75C1.875 2.71619 2.71619 1.875 3.75 1.875H20.25C21.2838 1.875 22.125 2.71619 22.125 3.75V15.5156C22.125 16.0334 22.5447 16.4531 23.0625 16.4531C23.5803 16.4531 24 16.0334 24 15.5156V3.75C24 1.68219 22.3178 0 20.25 0H3.75C1.68219 0 0 1.68219 0 3.75V20.25C0 22.3178 1.68219 24 3.75 24H20.25C22.3178 24 24 22.3178 24 20.25Z" fill="#016189"/>
</svg>
