<svg width="16" height="21" viewBox="0 0 16 21" fill="none" xmlns="http://www.w3.org/2000/svg">
<path d="M8 0C3.58871 0 0 3.47992 0 7.7575C0 9.16571 0.651294 10.6802 0.678588 10.7441C0.888941 11.2283 1.304 11.9803 1.60329 12.4211L7.08847 20.4802C7.31294 20.8106 7.64518 21 8 21C8.35482 21 8.68706 20.8106 8.91153 20.4807L14.3972 12.4211C14.6969 11.9803 15.1115 11.2283 15.3219 10.7441C15.3492 10.6807 16 9.16617 16 7.7575C16 3.47992 12.4113 0 8 0ZM14.4541 10.39C14.2664 10.824 13.88 11.5235 13.6113 11.9187L8.12565 19.9783C8.01741 20.1375 7.98306 20.1375 7.87482 19.9783L2.38918 11.9187C2.12047 11.5235 1.73412 10.8235 1.54635 10.3896C1.53835 10.3709 0.941176 8.97679 0.941176 7.7575C0.941176 3.98325 4.10776 0.912647 8 0.912647C11.8922 0.912647 15.0588 3.98325 15.0588 7.7575C15.0588 8.97862 14.4602 10.3763 14.4541 10.39Z" fill="#016189"/>
<path d="M8 3.65104C5.66447 3.65104 3.76471 5.49368 3.76471 7.75796C3.76471 10.0222 5.66447 11.8649 8 11.8649C10.3355 11.8649 12.2353 10.0222 12.2353 7.75796C12.2353 5.49368 10.3355 3.65104 8 3.65104ZM8 10.9522C6.184 10.9522 4.70589 9.51936 4.70589 7.75796C4.70589 5.99655 6.184 4.56369 8 4.56369C9.816 4.56369 11.2941 5.99655 11.2941 7.75796C11.2941 9.51936 9.816 10.9522 8 10.9522Z" fill="#016189"/>
</svg>
