<svg width="21" height="23" viewBox="0 0 21 23" fill="none" xmlns="http://www.w3.org/2000/svg">
<path d="M7.4671 10.3627C7.7509 10.6567 8.12937 10.8188 8.53291 10.8191H8.5339C8.93766 10.8191 9.3167 10.6571 9.60128 10.363C9.72576 10.2343 9.72239 10.0292 9.5938 9.90473C9.46521 9.78024 9.26 9.78362 9.1356 9.91221C8.97417 10.079 8.7605 10.1709 8.53386 10.1709C8.53369 10.1709 8.53347 10.1709 8.5333 10.1709C8.30705 10.1707 8.09399 10.079 7.93333 9.91251C7.80906 9.7837 7.6039 9.78007 7.47513 9.90439C7.34641 10.0287 7.34278 10.2339 7.4671 10.3627Z" fill="#016189"/>
<path d="M6.48524 7.84921C6.6039 7.73393 6.79774 7.73419 6.91739 7.84977C6.98026 7.91057 7.06145 7.94081 7.14251 7.94081C7.22733 7.94081 7.31198 7.90772 7.37558 7.84191C7.49994 7.71318 7.49644 7.50802 7.36772 7.38367C6.99918 7.02749 6.40077 7.02775 6.03374 7.38423C5.90537 7.50893 5.90234 7.71409 6.02705 7.84251C6.15179 7.97089 6.35691 7.97387 6.48524 7.84921Z" fill="#016189"/>
<path d="M9.9935 7.94078C10.0746 7.94078 10.1557 7.91053 10.2186 7.84974C10.3382 7.73419 10.5321 7.73389 10.6508 7.84918C10.7791 7.97388 10.9843 7.97085 11.109 7.84248C11.2336 7.71406 11.2306 7.5089 11.1022 7.3842C10.7352 7.02771 10.1368 7.02754 9.76829 7.38363C9.63957 7.50803 9.63607 7.71319 9.76042 7.84187C9.82399 7.90772 9.90868 7.94078 9.9935 7.94078Z" fill="#016189"/>
<path d="M20.6633 15.9821C20.5953 15.8165 20.406 15.7375 20.2404 15.8056C20.0749 15.8737 19.9959 16.0631 20.0639 16.2286C20.6493 17.6524 20.3251 19.2753 19.2379 20.3632C18.522 21.0801 17.5703 21.4751 16.5581 21.4753C16.5578 21.4753 16.5575 21.4753 16.5573 21.4753C15.5448 21.4753 14.5925 21.0803 13.8759 20.3632C12.3973 18.8823 12.3973 16.4727 13.8758 14.9919C14.2858 14.5817 14.773 14.2774 15.3043 14.0917C15.3099 14.0899 15.3154 14.0882 15.3209 14.0862C15.7136 13.9509 16.1299 13.8798 16.5573 13.8798H16.5581C17.5703 13.88 18.522 14.2749 19.2379 14.9919C19.3643 15.1185 19.5695 15.1187 19.6961 14.9922C19.8227 14.8657 19.8229 14.6605 19.6964 14.5339C18.8582 13.6943 17.7437 13.2319 16.5582 13.2316C16.5579 13.2316 16.5576 13.2316 16.5573 13.2316C16.1119 13.2316 15.6765 13.2969 15.262 13.4229C14.6 12.9591 13.8278 12.6186 13.0632 12.4534C12.9347 12.3569 12.6974 12.1724 12.4282 11.9629C12.2076 11.7912 11.9672 11.6043 11.7405 11.4298C12.4581 10.7307 13.0137 9.8602 13.2678 8.97405C13.5591 8.91421 13.8539 8.75381 14.0923 8.51836C14.3873 8.22708 14.5565 7.86096 14.5565 7.51386V7.05942C14.5565 6.6281 14.206 6.27724 13.7751 6.27724H13.4155V6.26937V5.60917V4.11592C13.4155 3.24157 13.076 2.40991 12.4339 1.71086C11.8748 1.10221 11.0857 0.603306 10.212 0.306022C9.39378 0.0275774 8.52829 -0.0649781 7.77518 0.0453367C6.98289 0.161312 6.33642 0.490571 5.8959 1.00058C5.00072 1.1293 3.66675 1.81003 3.71233 4.73019C3.71276 4.75914 3.7132 4.78287 3.7132 4.80071V5.54301V6.27724H3.35477C2.92319 6.27724 2.57207 6.6281 2.57207 7.05942V7.51386C2.57207 7.86092 2.74128 8.22708 3.03623 8.51836C3.2747 8.75385 3.56948 8.91425 3.8608 8.97409C4.11876 9.87372 4.68736 10.7574 5.42094 11.4616C5.20402 11.6288 4.97696 11.8055 4.76821 11.9679C4.50204 12.1751 4.26736 12.3578 4.13994 12.4534C3.3285 12.6287 2.50803 13.0016 1.82164 13.5088C1.67771 13.6152 1.64725 13.8181 1.75363 13.9621C1.81719 14.0481 1.91519 14.0936 2.01449 14.0936C2.08138 14.0936 2.14891 14.0729 2.20681 14.0301C2.79961 13.592 3.50285 13.2658 4.20151 13.1032L6.11113 14.5255C6.1183 14.5308 6.12569 14.5359 6.13334 14.5406C6.20489 14.5852 6.25173 14.6218 6.28937 14.6512C6.40539 14.7418 6.50499 14.7774 6.59318 14.7774C6.74061 14.7774 6.85615 14.6778 6.96314 14.5686C7.01901 14.5116 7.09908 14.4301 7.22093 14.3206L7.40319 15.0375L6.29611 18.7314L6.29663 18.7295C6.25675 18.8372 6.26418 18.9392 6.31776 19.0383L6.92568 20.1909H3.51858V18.0811C3.51858 17.9022 3.37348 17.7571 3.19455 17.7571C3.01557 17.7571 2.87052 17.9022 2.87052 18.0811V20.1909H0.841383C0.805648 20.1909 0.771426 20.1915 0.738759 20.1921C0.711062 20.1926 0.678352 20.1932 0.649401 20.1929C0.64858 20.1793 0.648062 20.1631 0.648062 20.1439V16.6995C0.648062 16.1042 0.847 15.5282 1.23939 14.9876C1.34452 14.8427 1.31233 14.64 1.16749 14.5349C1.02256 14.4297 0.81995 14.4619 0.714907 14.6068C0.240506 15.2604 0 15.9645 0 16.6994V20.1438C0 20.2996 0.0184938 20.5248 0.178457 20.682C0.322562 20.8236 0.50063 20.8411 0.667679 20.8411C0.695549 20.8411 0.72316 20.8406 0.75021 20.8402C0.779204 20.8397 0.809623 20.8391 0.841383 20.8391H7.4623C7.4626 20.8391 7.46295 20.8392 7.46325 20.8392C7.4636 20.8392 7.46394 20.8391 7.46433 20.8391H9.66557C9.66592 20.8391 9.66626 20.8392 9.66665 20.8392C9.66695 20.8392 9.66726 20.8391 9.6676 20.8391H13.4358C14.2728 21.6675 15.3801 22.1235 16.5574 22.1235H16.5583C17.7438 22.1232 18.8583 21.6608 19.6964 20.8213C20.969 19.548 21.3485 17.6485 20.6633 15.9821ZM13.0016 13.1032C13.5239 13.2247 14.0484 13.4378 14.5283 13.7209C14.1234 13.9296 13.7488 14.2022 13.4174 14.5339C11.8834 16.0702 11.7092 18.4604 12.8945 20.191H10.2038L10.8093 19.0413C10.8642 18.9397 10.8718 18.8382 10.8316 18.7286L9.72542 15.0376L9.92168 14.267C10.0786 14.4041 10.1754 14.5026 10.24 14.5686C10.347 14.6778 10.4625 14.7774 10.61 14.7774C10.6982 14.7774 10.7978 14.7417 10.9138 14.6512C10.9514 14.6218 10.9983 14.5852 11.0698 14.5406C11.0774 14.5359 11.0848 14.5308 11.092 14.5254L13.0016 13.1032ZM7.99132 14.7205L7.76352 13.8244L8.60162 13.0525L9.3797 13.7691L9.13742 14.7205H7.99132ZM12.0304 12.4745C12.1622 12.5771 12.283 12.671 12.3878 12.7522L10.7154 13.9978C10.6868 14.0159 10.6611 14.033 10.6379 14.049C10.5655 13.9765 10.4664 13.8809 10.3242 13.7579L9.96363 13.4257C9.96208 13.4242 9.96052 13.4229 9.95897 13.4214L9.32581 12.8383C9.48159 12.7994 9.64258 12.7486 9.81201 12.6852C10.3144 12.4976 10.8 12.2145 11.2437 11.8654C11.4975 12.06 11.777 12.2774 12.0304 12.4745ZM13.7751 6.92534C13.8487 6.92534 13.9085 6.98545 13.9085 7.05938V7.51382C13.9085 7.68618 13.8071 7.88927 13.6371 8.05705C13.5657 8.12753 13.4868 8.18742 13.4056 8.2346C13.412 8.15358 13.4155 8.07364 13.4155 7.99517V6.9253H13.7751V6.92534ZM6.09238 1.63002C6.1826 1.62202 6.26539 1.57665 6.32061 1.50484C6.7916 0.892682 7.58022 0.648201 8.41292 0.648201C8.94915 0.648201 9.50375 0.749658 10.0033 0.919602C11.2784 1.35347 12.7674 2.45092 12.7674 4.11592V5.60908V5.94521H12.2598C11.5504 5.94521 11.0973 5.51968 10.5726 5.02696C9.94514 4.43766 9.23395 3.76977 7.97421 3.76977H6.54323C5.48281 3.76977 5.31149 4.60605 5.18644 5.21665C5.05171 5.87448 4.94934 6.23537 4.36126 6.27374V5.54293V4.80063C4.36126 4.78019 4.36087 4.75309 4.36035 4.72C4.33944 3.38213 4.62294 1.76008 6.09238 1.63002ZM3.22013 7.51382V7.05938C3.22013 6.98674 3.28179 6.92534 3.35473 6.92534H3.71315V7.99522C3.71315 8.07382 3.7167 8.15393 3.72305 8.23512C3.64186 8.18776 3.563 8.12761 3.49157 8.05709C3.32163 7.88922 3.22013 7.68618 3.22013 7.51382ZM4.43467 8.6075C4.43446 8.60646 4.43415 8.60547 4.43389 8.60443C4.38567 8.39214 4.36122 8.18711 4.36122 7.99517V6.92266C5.50952 6.86813 5.6964 5.95636 5.82128 5.34676C5.96223 4.65872 6.05509 4.41796 6.54318 4.41796H7.97417C8.97733 4.41796 9.53672 4.9433 10.129 5.49946C10.7016 6.03729 11.2938 6.5934 12.2597 6.5934H12.7674V7.99522C12.7674 8.18716 12.743 8.39214 12.6948 8.60443C12.6947 8.60474 12.6946 8.60504 12.6945 8.60534C12.6944 8.60599 12.6942 8.60664 12.6941 8.60729C12.3653 10.0473 11.0294 11.5389 9.58512 12.0781C9.20305 12.2212 8.87894 12.2878 8.56497 12.2878C8.24989 12.2878 7.92586 12.2212 7.54444 12.0779C6.09981 11.5391 4.7635 10.0475 4.43467 8.6075ZM6.87905 13.7579C6.73689 13.881 6.63773 13.9766 6.56535 14.049C6.54215 14.033 6.51644 14.0159 6.48792 13.9979L4.81539 12.7522C4.91849 12.6723 5.03706 12.58 5.1663 12.4794C5.40862 12.2908 5.67588 12.0828 5.92196 11.8939C6.35587 12.2299 6.82859 12.5027 7.31729 12.685C7.50819 12.7567 7.68833 12.8114 7.86268 12.8519L7.18541 13.4757C7.18325 13.4777 7.18109 13.4796 7.17902 13.4817L6.87905 13.7579ZM6.94223 18.8331L7.98052 15.3686H9.14813L10.1865 18.8331L9.47139 20.1909H7.65843L6.94223 18.8331Z" fill="#016189"/>
<path d="M16.5575 19.8567C16.7365 19.8567 16.8815 19.7116 16.8815 19.5327V16.6056L17.5831 17.3082C17.6464 17.3716 17.7294 17.4032 17.8124 17.4032C17.8952 17.4032 17.9781 17.3717 18.0413 17.3085C18.1679 17.182 18.1681 16.9768 18.0416 16.8502L16.7868 15.5934C16.7866 15.5932 16.7863 15.593 16.7861 15.5927C16.7808 15.5875 16.7761 15.5833 16.7718 15.5798C16.7147 15.5292 16.6398 15.4983 16.5575 15.4983C16.4735 15.4983 16.3973 15.5305 16.3398 15.5828C16.3362 15.5857 16.3323 15.5892 16.3283 15.5933L15.0722 16.85C14.9458 16.9766 14.9458 17.1818 15.0724 17.3084C15.1356 17.3716 15.2185 17.4032 15.3014 17.4032C15.3844 17.4032 15.4673 17.3715 15.5306 17.3082L16.2334 16.605V19.5326C16.2335 19.7116 16.3785 19.8567 16.5575 19.8567Z" fill="#016189"/>
</svg>
