<svg width="16" height="16" viewBox="0 0 16 16" fill="none" xmlns="http://www.w3.org/2000/svg">
<path d="M12.8 2.66667H9.86667V2.13333H12C12.2946 2.13333 12.5333 1.89455 12.5333 1.6V0.533333C12.5333 0.238781 12.2946 0 12 0H9.86667C9.57211 0 9.33333 0.238781 9.33333 0.533333V2.66667H5.33333C3.76937 2.65903 2.43207 3.78984 2.17973 5.33333H0.8C0.358172 5.33333 0 5.69151 0 6.13333V9.86667C0 10.3085 0.358172 10.6667 0.8 10.6667H8V15.4667C8.0175 15.777 8.28206 16.0151 8.59253 16H10.8741C11.1846 16.0151 11.4492 15.777 11.4667 15.4667V10.6667H15.4667C15.7612 10.6667 16 10.4279 16 10.1333V5.86667C15.9981 4.10015 14.5665 2.66858 12.8 2.66667ZM9.86667 0.533333H12V1.6H9.86667V0.533333ZM5.33333 3.2C6.80542 3.20162 7.99838 4.39458 8 5.86667V10.1333H7.4176C7.44918 10.0479 7.46578 9.95772 7.46667 9.86667V6.13333C7.46667 5.69151 7.10849 5.33333 6.66667 5.33333H2.72C2.96739 4.08789 4.06358 3.19305 5.33333 3.2ZM2.59227 8.08293L0.533333 9.8256V6.34053L2.59227 8.08293ZM3.00507 8.43227L3.21653 8.61093C3.51525 8.86165 3.95088 8.86165 4.2496 8.61093L4.46293 8.43173L6.47173 10.1333H0.994933L3.00507 8.43227ZM6.93333 6.34053V9.8256L4.8744 8.08293L6.93333 6.34053ZM6.66667 5.86667L3.90453 8.20507C3.80538 8.28831 3.66075 8.28831 3.5616 8.20507L0.8 5.86667H6.66667ZM10.9389 15.4459C10.9208 15.4608 10.8976 15.4683 10.8741 15.4667H8.59253C8.5746 15.4655 8.55678 15.463 8.5392 15.4592C8.536 15.4592 8.53413 15.4592 8.5336 15.4627V10.6667H9.3336V14.6667C9.3336 14.8139 9.45299 14.9333 9.60027 14.9333C9.74754 14.9333 9.86693 14.8139 9.86693 14.6667V10.6667H10.9336L10.9389 15.4459ZM15.4667 10.1333H8.53333V5.86667C8.53249 4.79339 7.99365 3.792 7.0984 3.2H12.8C14.2721 3.20162 15.4651 4.39458 15.4667 5.86667V10.1333Z" fill="#016189"/>
<path d="M12.2667 7.46667C11.9721 7.46667 11.7333 7.70546 11.7333 8.00001V9.06667C11.7333 9.36123 11.9721 9.60001 12.2667 9.60001H14.4C14.6946 9.60001 14.9333 9.36123 14.9333 9.06667V8.00001C14.9333 7.70546 14.6946 7.46667 14.4 7.46667H12.2667ZM12.2667 9.06667V8.00001H14.4V9.06667H12.2667Z" fill="#016189"/>
<path d="M2.93335 6.93334H4.53336C4.68063 6.93334 4.80002 6.81394 4.80002 6.66667C4.80002 6.51939 4.68063 6.4 4.53336 6.4H2.93335C2.78608 6.4 2.66669 6.51939 2.66669 6.66667C2.66669 6.81394 2.78608 6.93334 2.93335 6.93334Z" fill="#016189"/>
</svg>
